# xmcd CD database file
#
# Track frame offsets:
#	150
#	18050
#	37470
#	63842
#	90132
#	113222
#	140750
#	168250
#	206375
#	232187
#	259950
#	294195
#	310755
#
# Disc length: 4429 seconds
#
# Revision: 1
# Processed by: cddbd v1.5.2PL0 Copyright (c) Steve Scherf et al.
# Submitted via: CDex 1.92
#
DISCID=af114b0d
DTITLE=Beautiful World - In Existence
DYEAR=1900
DGENRE=New Age
TTITLE0=In the Beginning
TTITLE1=In Existence
TTITLE2=Evolution
TTITLE3=Magicien Du Bonheur
TTITLE4=I Know
TTITLE5=The Silk Road
TTITLE6=Love Song
TTITLE7=Journey of the Ancestors
TTITLE8=Revolution of the Heart
TTITLE9=The Coming of Age
TTITLE10=Spoken Word
TTITLE11=Wonderful World
TTITLE12=The Final Emotion
EXTD=
EXTT0=
EXTT1=
EXTT2=
EXTT3=
EXTT4=
EXTT5=
EXTT6=
EXTT7=
EXTT8=
EXTT9=
EXTT10=
EXTT11=
EXTT12=
PLAYORDER=
